<?xml version="1.0" encoding="utf-8"?>
<!-- Generator: Adobe Illustrator 23.0.2, SVG Export Plug-In . SVG Version: 6.00 Build 0)  -->
<svg version="1.1" id="Layer_1" xmlns="http://www.w3.org/2000/svg" xmlns:xlink="http://www.w3.org/1999/xlink" x="0px" y="0px"
	 viewBox="0 0 200 200" style="enable-background:new 0 0 200 200;" xml:space="preserve">
<style type="text/css">
	.st0{fill:url(#path3420_2_);}
	.st1{fill:url(#path3424_2_);}
</style>
<g id="g3412_1_">
	<g id="g3418_1_" transform="translate(124.2651,67.6299)">
		<linearGradient id="path3420_2_" gradientUnits="userSpaceOnUse" x1="-115.3674" y1="8.7033" x2="67.2128" y2="8.4261">
			<stop  offset="0.5333" style="stop-color:#1890FF"/>
			<stop  offset="0.6971" style="stop-color:#0E73EE"/>
			<stop  offset="0.8895" style="stop-color:#0456DD"/>
			<stop  offset="1" style="stop-color:#004BD7"/>
		</linearGradient>
		<path id="path3420_1_" class="st0" d="M-36.7-8.1c-2.5-5.3-8.6-8.3-14.7-6.5c-4.3,1.2-7.7,4.9-8.6,9.4
			c-1.5,7.9,4.6,14.8,12.2,14.8c3.3,0,6.4-1.3,8.7-3.7l13.5,26.3l14.3-26.3C-7.9,9.3-3.1,10.5,1.6,9c4.1-1.4,7.3-5,8.1-9.3
			c1.5-7.9-4.5-14.8-12.1-14.8c-5.3,0-10,3.4-11.6,8.4L-25.2,14L-36.5-7.7L-36.7-8.1z"/>
	</g>
	<g id="g3422_1_" transform="translate(126.0786,50.4541)">
		<linearGradient id="path3424_2_" gradientUnits="userSpaceOnUse" x1="-114.5273" y1="49.2396" x2="63.0807" y2="50.147">
			<stop  offset="0.5333" style="stop-color:#1890FF"/>
			<stop  offset="0.6971" style="stop-color:#0E73EE"/>
			<stop  offset="0.8895" style="stop-color:#0456DD"/>
			<stop  offset="1" style="stop-color:#004BD7"/>
		</linearGradient>
		<path id="path3424_1_" class="st1" d="M-31.6,74c-0.2,5.4-1.4,16.9-9,25.1c-6,6.6-15.1,10-26.8,10.1h-7.4V45.1
			C-65.4,61.5-49.5,72.2-31.6,74 M-26.8,109.3H-39c1.8-1.3,3.4-2.8,4.8-4.4c9.2-10.1,11-23.2,11.2-30.7
			c18.7-1.1,35.9-12.1,45.7-29.1v16.7c0,0.1,0.9,20.2-12.1,34C2.1,104.8-10.4,109.3-26.8,109.3 M-21.8-1.8V-2
			c0-9.4,6.2-18,15.3-20.2c13.9-3.3,23.3,8.8,27.1,19.9c1.3,5,2,10,2,14.9c0,29.3-21.9,53.1-48.7,53.1s-48.7-23.8-48.7-53.1
			c0-4.9,0.7-9.8,1.9-14.6c2.9-8.3,10-22.6,24.6-20.5c10,1.4,17.2,10.4,17.2,20.4v0.3L-21.8-1.8z M-1.8-31.3
			c-10.2,0-19.5,5.4-24.6,14.2c-5.1-8.8-14.4-14.2-24.6-14.2c-0.8,0-1.7,0-2.5,0.1c8.1-6.1,17.6-9.3,27.5-9.3
			c5.7,0,11.3,1.1,16.6,3.2c3.8,1.5,7.5,3.6,11,6.3C0.4-31.2-0.7-31.3-1.8-31.3 M-26.8,117.9c0.3,0,0.5,0,0.7,0h0.1l17.2,21.7h-24.4
			l-17.2-21.7H-26.8z M2.2,139.6l-17.8-22.5c13.6-1.8,24.5-7,32.5-15.4c15.7-16.7,14.4-40,14.4-40.2V12.7c0-5.2-0.7-10.5-2-15.8h0.1
			l-0.5-1.5c-0.9-3.2-1.8-5.8-2.8-8.2C19.8-27.8,8-39.6-6.3-45.3c-6.3-2.5-13-3.8-19.8-3.8c-25.3,0-48,18.3-55.1,44.7l-0.3,1.2l0,0
			c-1.3,5.3-2,10.6-2,15.8v105.2h22l17.2,21.7h-38.9v8.6H31.3v-8.6H2.2V139.6z"/>
	</g>
</g>
</svg>
